<svg xmlns="http://www.w3.org/2000/svg" width="2027" height="501" viewBox="0 0 2027 501">
  <g id="logo" transform="translate(-110 -276)">
    <g id="Group_1" data-name="Group 1" transform="translate(0 61)">
      <path id="Path_1" data-name="Path 1" d="M5.5,256c0-135.31,109.69-245,245-245s245,109.69,245,245A244.668,244.668,0,0,1,394.495,454.24a245.174,245.174,0,0,0-268.99,12.52A244.88,244.88,0,0,1,5.5,256Z" transform="translate(104.5 215)" fill="#f44545"/>
      <path id="Path_2" data-name="Path 2" d="M272.123,0V432.466c0,40.322-37.076,70.8-76.5,62.356q-.513-.109-.994-.222A243.667,243.667,0,0,1,117.3,461.662L100.3,320,67.243,44.529A15,15,0,0,1,79.981,27.9Z" transform="translate(104.5 215)" fill="#5596fb"/>
      <path id="Path_3" data-name="Path 3" d="M242.123,39.293V466.637a4.011,4.011,0,0,1-4.255,4,213.974,213.974,0,0,1-90.729-26.058,4.006,4.006,0,0,1-2.039-3.034L130.086,316.425l-.485-4.046a22.942,22.942,0,0,0-3.168-30.854l-.6-.531-10.416-86.8,1.856-2.629a20.272,20.272,0,0,0-5.622-28.757L99.238,59.358a4,4,0,0,1,3.4-4.435L144.9,48.786a24.275,24.275,0,0,0,31.14-4.377l.148-.166,61.357-8.909a4,4,0,0,1,4.575,3.959Z" transform="translate(104.5 215)" fill="#0a66ea"/>
      <path id="Path_4" data-name="Path 4" d="M242.123,146.094v31.869L115.419,194.2l-3.766-31.386,47.089-6.034L144.9,48.786l31.287-4.542,13.9,108.517ZM129.6,312.38l112.522-14.418V266.093l-116.288,14.9Z" transform="translate(104.5 215)" fill="#55a4f9"/>
      <path id="Path_5" data-name="Path 5" d="M205.583,251.431,142.06,259.57a2,2,0,0,1-2.238-1.729l-5.8-45.279a2,2,0,0,1,1.73-2.238l63.523-8.139a2,2,0,0,1,2.238,1.729l5.8,45.279A2,2,0,0,1,205.583,251.431Zm11.8,74.107a2,2,0,0,0-2.238-1.729l-63.523,8.139a2,2,0,0,0-1.73,2.238l11.938,93.168a2,2,0,0,0,2.238,1.73l63.523-8.139a2,2,0,0,0,1.73-2.238Zm17.8-250.205L232.514,54.5a2,2,0,0,0-2.238-1.73l-34.03,4.36a2,2,0,0,0-1.73,2.238l2.669,20.83a2,2,0,0,0,2.238,1.73l34.03-4.361A2,2,0,0,0,235.183,75.333Z" transform="translate(104.5 215)" fill="#0a4499"/>
      <path id="Path_6" data-name="Path 6" d="M174.5,140,272.123,0,345.5,170Z" transform="translate(104.5 215)" fill="#76b6fa"/>
      <path id="Path_7" data-name="Path 7" d="M250.5,501a246.75,246.75,0,0,1-39.116-3.106c-5.653-.907-24.039-358.408-8.368-359.035l204.645-8.186A15,15,0,0,1,423.217,146.8L400.074,450.056A243.923,243.923,0,0,1,250.5,501Z" transform="translate(104.5 215)" fill="#e9f3fe"/>
      <path id="Path_8" data-name="Path 8" d="M227.773,499.959a244.473,244.473,0,0,1-33.147-5.36L174.5,140l32.768-1.311Z" transform="translate(104.5 215)" fill="#c8e2fd"/>
      <path id="Path_9" data-name="Path 9" d="M363.7,302.5a70,70,0,1,1-70-70A70,70,0,0,1,363.7,302.5Z" transform="translate(104.5 215)" fill="#c8e2fd"/>
      <path id="Path_10" data-name="Path 10" d="M309.1,370.8a70,70,0,1,1,0-136.6,70.02,70.02,0,0,0,0,136.6Z" transform="translate(104.5 215)" fill="#a7d0fc"/>
      <path id="Path_11" data-name="Path 11" d="M293.7,225a77.5,77.5,0,1,0,77.5,77.5A77.587,77.587,0,0,0,293.7,225Zm.028,140h-.016c-.866-.155-5.127-3.519-9.056-16.4a123.56,123.56,0,0,1-3.848-17.6h25.785a123.477,123.477,0,0,1-3.849,17.6c-3.929,12.882-8.19,16.245-9.016,16.4Zm-14.5-49c-.284-4.395-.429-8.913-.429-13.5s.146-9.105.429-13.5h28.942c.284,4.395.429,8.913.429,13.5s-.146,9.105-.429,13.5ZM231.2,302.5a62.509,62.509,0,0,1,1.468-13.5h31.54c-.273,4.491-.408,9.016-.408,13.5s.135,9.009.408,13.5h-31.54a62.509,62.509,0,0,1-1.468-13.5ZM293.671,240h.016c.866.155,5.127,3.518,9.056,16.4a123.555,123.555,0,0,1,3.849,17.6H280.807a123.559,123.559,0,0,1,3.848-17.6c3.93-12.883,8.19-16.247,9.016-16.4Zm29.521,49h31.54a62.809,62.809,0,0,1,0,27h-31.54c.273-4.491.408-9.016.408-13.5S323.465,293.491,323.192,289Zm26.123-15H321.73c-1.573-11.524-4.155-22.21-7.806-30.642A62.84,62.84,0,0,1,349.315,274Zm-75.84-30.642c-3.651,8.432-6.233,19.118-7.806,30.642H238.084A62.84,62.84,0,0,1,273.475,243.358ZM238.084,331h27.585c1.573,11.524,4.155,22.21,7.806,30.642A62.84,62.84,0,0,1,238.084,331Zm75.84,30.642c3.651-8.432,6.233-19.118,7.806-30.642h27.585A62.837,62.837,0,0,1,313.924,361.642Z" transform="translate(104.5 215)" fill="#76b6fa"/>
      <path id="Path_12" data-name="Path 12" d="M261.2,447.5h65a7.5,7.5,0,0,1,0,15h-65a7.5,7.5,0,1,1,0-15Zm72.5-275a7.5,7.5,0,0,0-7.5-7.5h-65a7.5,7.5,0,0,0,0,15h65A7.5,7.5,0,0,0,333.7,172.5Zm-99.2,255A7.5,7.5,0,0,0,242,435H345.4a7.5,7.5,0,0,0,0-15H242a7.5,7.5,0,0,0-7.5,7.5Z" transform="translate(104.5 215)" fill="#a7d0fc"/>
    </g>
    <path id="Path_13" data-name="Path 13" d="M128,62.74l8,15.215a2.436,2.436,0,0,0,1.025,1.025l15.215,8a2.441,2.441,0,0,1,0,4.321l-15.215,8a2.436,2.436,0,0,0-1.025,1.025l-8,15.215a2.441,2.441,0,0,1-4.321,0l-8-15.215a2.436,2.436,0,0,0-1.025-1.025l-15.215-8a2.441,2.441,0,0,1,0-4.321l15.215-8a2.436,2.436,0,0,0,1.025-1.025l8-15.215a2.441,2.441,0,0,1,4.321,0Z" transform="translate(104.5 215)" fill="#f5f0eb"/>
    <text id="TripPlanner" transform="translate(600 631)" stroke="#1decdf" stroke-width="10" font-size="301" font-family="MaiandraGD-Regular, Maiandra GD"><tspan x="0" y="0">TripPlanner</tspan></text>
  </g>
</svg>
